<svg id="Layer_1" data-name="Layer 1" xmlns="http://www.w3.org/2000/svg" viewBox="0 0 1024 1024"><defs><style>.cls-1{fill:#fff;}.cls-2{fill:#007dbc;}.cls-3{fill:#3eb049;}.cls-4{fill:none;stroke:#231f20;stroke-miterlimit:10;}</style></defs><rect class="cls-1" width="1024" height="1024"/><path class="cls-2" d="M301.9,77.52h11v59.76h18v9.95h-29Z"/><path class="cls-2" d="M336.16,77.52h10.95v69.71H336.16Z"/><path class="cls-2" d="M355.27,77.52h29v10h-18V106.9h14.15v10H366.22v30.37h-11Z"/><path class="cls-2" d="M389.52,77.52H419.4v10H400.48v18.42h15v10h-15v21.41H419.4v9.95H389.52Z"/><path class="cls-2" d="M301.9,177h16.53q8.46,0,12.34,3.93t3.89,12.1v2.79a19.17,19.17,0,0,1-1.74,8.76,10.3,10.3,0,0,1-5.33,4.88v.2q8.16,2.79,8.17,14.54v6c0,5.38-1.42,9.48-4.23,12.3s-7,4.23-12.41,4.23H301.9Zm15.24,28.38a6.54,6.54,0,0,0,4.92-1.69q1.65-1.69,1.65-5.68v-3.89q0-3.78-1.35-5.47a5.06,5.06,0,0,0-4.23-1.7h-5.28v18.43Zm2,31.36a5.51,5.51,0,0,0,4.29-1.54q1.39-1.55,1.39-5.32V223.8c0-3.19-.55-5.39-1.64-6.62s-2.91-1.85-5.43-1.85h-4.88v21.41Z"/><path class="cls-2" d="M342.13,177H372V187H353.08v18.43h15v10h-15v21.41H372v10H342.13Z"/><path class="cls-2" d="M378.27,177h11v59.74h18v10h-29Z"/><path class="cls-2" d="M415.62,243.11q-4.29-4.56-4.29-12.94V193.53q0-8.37,4.29-12.95T428,176c5.38,0,9.49,1.53,12.36,4.59s4.27,7.37,4.27,12.95v36.64q0,8.37-4.27,12.94c-2.87,3.06-7,4.59-12.36,4.59S418.47,246.17,415.62,243.11Zm18-12.24v-38q0-6.87-5.68-6.87t-5.67,6.87v38q0,6.87,5.67,6.87T433.64,230.87Z"/><path class="cls-2" d="M449.37,177h10.56l4.88,53.57h.2L470.19,177h11.94l5.18,53.57h.21L492.4,177h9.45l-7.07,69.7H481.14l-5-47H476l-5,47H456.45Z"/><path class="cls-2" d="M520.77,177h10.55l4.88,53.57h.2L541.58,177h11.95l5.18,53.57h.2L563.79,177h9.46l-7.07,69.7H552.54l-5-47h-.19l-5,47H527.84Z"/><path class="cls-2" d="M585.9,177h14.83l11.35,69.7h-11l-2-13.84v.2H586.69l-2,13.64H574.54Zm11.94,46.59L593,189.14h-.19L588,223.59Z"/><path class="cls-2" d="M621.34,187H609.89V177h33.86V187H632.3V246.7h-11Z"/><path class="cls-2" d="M649,177H678.9V187H660v18.43h15v10H660v21.41H678.9v10H649Z"/><path class="cls-2" d="M685.18,177h16.23q8.46,0,12.34,3.93c2.6,2.62,3.88,6.66,3.88,12.1v4.28q0,10.84-7.17,13.74v.2a8.57,8.57,0,0,1,5.64,4.88,24.68,24.68,0,0,1,1.64,9.86v12.24a47.73,47.73,0,0,0,.2,4.84,12,12,0,0,0,1,3.63H707.78a14.7,14.7,0,0,1-.79-3.19,45.25,45.25,0,0,1-.21-5.37V225.4c0-3.2-.51-5.42-1.54-6.69s-2.8-1.89-5.33-1.89h-3.78V246.7h-11Zm14.93,29.87a6.58,6.58,0,0,0,4.93-1.69c1.1-1.13,1.64-3,1.64-5.68v-5.38q0-3.78-1.34-5.47a5.09,5.09,0,0,0-4.24-1.7h-5v19.92Z"/><path class="cls-2" d="M136.74,252.32H113.27V151.12l.23-16.64.38-18.18q-5.85,9.21-8.13,12.08L93,144.54,81.67,122.28l35.78-44.86h19.29Z"/><path class="cls-2" d="M240,216.08H226.64v36.24H203.7V216.08H156.31V190.36L205,77.42h21.65V187.36H240Zm-36.3-28.72V157.7q0-7.42.38-21.54t.61-16.38h-.61a172.28,172.28,0,0,1-6.75,19.14L177,187.36Z"/><path class="cls-3" d="M370.15,958.87H346.53V857.05l.23-16.74.38-18.29q-5.88,9.27-8.17,12.16l-12.84,16.24L314.74,828l36-45.13h19.42Z"/><path class="cls-3" d="M398.64,950q-10.47-11.31-10.47-32.5V903.81h25.92v15.7q0,16.93,14.2,17t14.2-17V880.4q0-17.21-14.2-17.2t-14.2,17.2v1.49H388.17l5-97.42h72.25v24.92H417.58L415.33,851h.5q7.71-12.71,23.67-12.7,14.94,0,22.67,10.22t7.73,29.64v39.37q0,21.16-10.47,32.5T429,961.37Q409.1,961.37,398.64,950Z"/><path class="cls-3" d="M533.91,786.74h11v59.74h18v10h-29Z"/><path class="cls-3" d="M568.16,786.74h11v69.7h-11Z"/><path class="cls-3" d="M587.28,786.74h29v10h-18v19.42h14.14v10H598.23v30.37h-11Z"/><path class="cls-3" d="M621.53,786.74h29.88v10H632.49v18.42h15v10h-15v21.41h18.92v10H621.53Z"/><path class="cls-3" d="M537.39,952.33q-4.27-4.59-4.28-13V902.73q0-8.36,4.28-12.94t12.35-4.58q8.07,0,12.35,4.58t4.28,12.94v36.64q0,8.37-4.28,13t-12.35,4.58Q541.68,956.91,537.39,952.33Zm18-12.25V902q0-6.88-5.67-6.88T544.07,902v38q0,6.85,5.67,6.86T555.41,940.08Z"/><path class="cls-3" d="M573.74,886.2h13.75l10.64,41.73h.21V886.2h9.76v69.71H596.85L583.7,905h-.2v50.89h-9.76Z"/><path class="cls-3" d="M632.19,886.2h11V946h18v10h-29Z"/><path class="cls-3" d="M675.31,886.2h14.83l11.36,69.71h-11l-2-13.84v.2H676.11l-2,13.64H664Zm12,46.61-4.88-34.46h-.2l-4.79,34.46Z"/><path class="cls-3" d="M706.78,886.2h13.73l10.66,41.73h.2V886.2h9.76v69.71H729.87L716.73,905h-.2v50.89h-9.75Z"/><path class="cls-3" d="M749.29,886.2H766q8.16,0,12.25,4.39c2.72,2.92,4.08,7.19,4.08,12.84v35.25q0,8.46-4.08,12.85T766,955.91H749.29ZM765.82,946a5.29,5.29,0,0,0,4.13-1.59c1-1.06,1.45-2.78,1.45-5.18V902.94c0-2.4-.48-4.12-1.45-5.19a5.29,5.29,0,0,0-4.13-1.59h-5.57V946Z"/><path class="cls-2" d="M363.51,460c-26.29-20.79-55.64-33.63-102.1-29.35S152,483.25,152,483.25s-16.51-48.91-79.48-52.58c0,0,53.8,57.48,0,149.19,0,0,45.24,5.5,78.87-52,0,0,64.19,52.25,118,52.11s90.71-27.28,97.21-31.33,35.46-31,41.57-43.33A276.41,276.41,0,0,0,363.51,460Zm-47.09,55.15a22.92,22.92,0,1,1,22.91-22.92A22.92,22.92,0,0,1,316.42,515.17Z"/><path class="cls-2" d="M72.49,359.14s41.57,26.29,75.5-9.78c0,0,43.11,39.43,89.27,0,0,0,39.74,41,89.87,0,0,0,27.82,34.54,75.21,11.31V378.4s-33.33,32.4-73.68-7.34c0,0-36.68,45.25-89.87.31,0,0-52.28,44.65-89.57-1.06,0,0-32.71,43.24-76.73,7.17Z"/><path class="cls-2" d="M72.49,307.78S114.06,334.07,148,298c0,0,43.11,39.43,89.27,0,0,0,39.74,41,89.87,0,0,0,27.82,34.54,75.21,11.31V327S369,359.45,328.66,319.7c0,0-36.68,45.25-89.87.31,0,0-52.28,44.66-89.57-1.06,0,0-32.71,43.25-76.73,7.17Z"/><path class="cls-3" d="M692.49,526.22s-25-11.84-14.13-45c0,0,7.56-22.35,34.19-19.72,0,0-4.16-29.17,23-39.12,0,0,27-17.75,55.88,7.24s11.5,55.88,11.5,55.88S850.43,496.32,843.2,545c0,0-4.1,27.27-37.63,44.36H714.68S693.15,584.9,684.11,563C684.11,563,675.63,540.44,692.49,526.22Z"/><rect class="cls-3" x="751.42" y="602.65" width="25.39" height="51.77"/><rect class="cls-3" x="663.56" y="672.29" width="327.28" height="25.39"/><rect class="cls-3" x="663.56" y="711.74" width="327.28" height="25.39"/><path class="cls-3" d="M878.88,553.83c-2.09.52-5.32,1.9-7.37.67-4.44-2.69,1.6-7.36,3.61-8.87A40.14,40.14,0,0,1,899,537.86a30.05,30.05,0,0,1,10.19,1.49,31,31,0,0,1,7.46,4.42,17.33,17.33,0,0,0,7.86,3.37,13.3,13.3,0,0,0,9.31-2.43c2.62-1.79,4.68-4.33,7.68-5.56a29.17,29.17,0,0,1,10.27-1.77,44.75,44.75,0,0,1,18,3.14,18.49,18.49,0,0,1,8.85,6.93c1.1,1.75,3.42,6.07.42,7.24-1.63.64-3.7,0-5.26-.53-4.6-1-16.8-6.13-27,.71s-7.23,4.55-13.48,9-5.09,4.6-11.5,0a63.36,63.36,0,0,0-21.7-10.19A45.77,45.77,0,0,0,878.88,553.83Z"/><path class="cls-3" d="M844.59,471.35c-1.7.51-4.31,1.78-6.05.84-3.78-2,1-6.14,2.62-7.46a33.23,33.23,0,0,1,19.37-7.37,24.69,24.69,0,0,1,8.47.83,25.62,25.62,0,0,1,6.33,3.35A14.4,14.4,0,0,0,882,464a11.1,11.1,0,0,0,7.59-2.39c2.09-1.58,3.69-3.76,6.11-4.89a23.86,23.86,0,0,1,8.42-1.87,36.66,36.66,0,0,1,15,1.87,15.3,15.3,0,0,1,7.59,5.36c1,1.41,3.06,4.88.63,6-1.31.59-3,.16-4.36-.24-3.84-.63-14.11-4.38-22.25,1.67s-5.79,4.05-10.77,8-4,4-9.49.46a52.5,52.5,0,0,0-18.32-7.55A37.82,37.82,0,0,0,844.59,471.35Z"/><path class="cls-3" d="M908.63,424.73c-1.45-.06-3.8.23-4.89-1-2.38-2.58,2.41-4.47,4-5.06a27.06,27.06,0,0,1,16.9-.54,20.24,20.24,0,0,1,6.32,2.88,21.33,21.33,0,0,1,4,4.27,11.67,11.67,0,0,0,4.45,3.67,9,9,0,0,0,6.49.17c2-.66,3.85-1.92,6-2.15a19.71,19.71,0,0,1,7,.79A30.22,30.22,0,0,1,970,433.23a12.51,12.51,0,0,1,4.43,6.15c.38,1.35,1.07,4.59-1.09,4.78a5.46,5.46,0,0,1-3.31-1.34c-2.8-1.51-9.72-7.14-17.61-4.62s-5.54,1.58-10.43,3.27-4.16,2-7.45-2.17a42.6,42.6,0,0,0-12.13-10.68A30.7,30.7,0,0,0,908.63,424.73Z"/><line class="cls-4" y1="1024" x2="1024"/></svg>