<svg id="Layer_1" data-name="Layer 1" xmlns="http://www.w3.org/2000/svg" viewBox="0 0 1024 1024"><defs><style>.cls-1{fill:#8dc21b;}.cls-2{fill:#ffcf00;}.cls-3{fill:#fff;}.cls-4{fill:#1d1d1b;}.cls-5{fill:#4da436;}.cls-6{fill:#ffdb00;}.cls-7{fill:#ffb300;}.cls-8{fill:#a5cd38;}</style></defs><path class="cls-1" d="M117.6,860.81q0-15.49-13.4-15.51-6.51,0-10,4.76t-3.44,13.22v32.26q0,8.82-4.94,13.4t-13.22,4.58q-8.28,0-13.22-4.58t-4.93-13.4V800q0-8.82,4.93-13.39T72.65,782q8.28,0,13.22,4.59T90.81,800v31h.35q9.87-14.28,27.32-14.27,18,0,26.71,9.78t8.72,25.82v43.19q0,8.82-4.93,13.4t-13.22,4.58q-8.3,0-13.22-4.58t-4.94-13.4Z"/><path class="cls-1" d="M271.31,884.26q0,3.35.52,9.69a63.57,63.57,0,0,1,.53,6.7,10.77,10.77,0,0,1-4.93,9.61,21.3,21.3,0,0,1-12,3.26q-8.82,0-13-3.88a17.66,17.66,0,0,1-5.29-10.75A28.61,28.61,0,0,1,223.45,910a49.69,49.69,0,0,1-18.78,3.53q-15.85,0-25.11-7T170.3,885a25.2,25.2,0,0,1,2.29-10.84,23.21,23.21,0,0,1,7.67-8.72q5.38-3.89,14.46-6.26A121.15,121.15,0,0,1,217,855.88q10.58-.71,14.81-2.65a6.55,6.55,0,0,0,4.23-6.34q0-9-14.63-9a22.93,22.93,0,0,0-9.25,1.67,51.2,51.2,0,0,0-8.73,5.2,53.83,53.83,0,0,1-7,4.24,15.39,15.39,0,0,1-6.79,1.41q-11.46,0-11.46-11.29,0-10,12.52-16.21t31.73-6.17a121.53,121.53,0,0,1,16.57,1.14A66.35,66.35,0,0,1,254.74,822a30.35,30.35,0,0,1,12,8.38,20,20,0,0,1,4.59,13.48ZM236.05,869.8a11.69,11.69,0,0,1-5.55,3.27,84.16,84.16,0,0,1-8.9,1.85,53.1,53.1,0,0,0-9,1.93q-4.94,1.95-4.94,7.58a7.86,7.86,0,0,0,3.26,6.44,12.37,12.37,0,0,0,7.85,2.55q7.58,0,12.42-4t4.85-9.25Z"/><path class="cls-1" d="M352.39,860.81q0-15.49-13.4-15.51-6.53,0-10,4.76t-3.43,13.22v32.26q0,8.82-4.94,13.4t-13.22,4.58q-8.28,0-13.22-4.58t-4.94-13.4V834q0-17.26,17.45-17.27,7.75,0,11.55,4.23T323,833.85h.35q9.34-17.1,30-17.1,18,0,26.7,9.78t8.73,25.82v43.19q0,8.82-4.94,13.4t-13.22,4.58q-8.28,0-13.22-4.58t-4.93-13.4Z"/><path class="cls-1" d="M470.84,800.18q0-9.16,4.49-13.66t13.13-4.5q8.64,0,13.14,4.5t4.49,13.66v95.71q0,17.64-16.21,17.63-7.59,0-11.73-4.67A17.27,17.27,0,0,1,474,897h-.35q-2.12,8.12-10.4,12.34A37.54,37.54,0,0,1,446,913.52q-19,0-30.14-13.13t-11.1-35.52a62.4,62.4,0,0,1,2.11-15.6,53.07,53.07,0,0,1,7-15.69,38.36,38.36,0,0,1,12.6-12.16q7.75-4.67,18.51-4.67a29.2,29.2,0,0,1,15,3.7,30.82,30.82,0,0,1,10.58,10.4h.35Zm-3.35,50.41a12,12,0,0,0-10.05-5.29q-8.64,0-12.51,5.91t-3.88,14.89a35.6,35.6,0,0,0,.79,7.67,23.56,23.56,0,0,0,2.56,6.7,12.76,12.76,0,0,0,4.85,4.85,14.9,14.9,0,0,0,7.49,1.76q7.58,0,11.1-5.82t3.53-16Q471.37,855.88,467.49,850.59Z"/><path class="cls-1" d="M575.54,837.37q2.65-11.28,6.52-16T593,816.75a18.65,18.65,0,0,1,12.08,4c3.35,2.71,5,6.52,5,11.46a32.69,32.69,0,0,1-1.67,7.67q-1.68,5.55-5.2,15.77l-21.16,61.87a49.76,49.76,0,0,1-7,13.93,33.18,33.18,0,0,1-9.34,8.72A37.15,37.15,0,0,1,555,944.63a51.41,51.41,0,0,1-11.9,1.32q-10.58,0-16-4a13,13,0,0,1-5.47-11.2q0-6.16,3.62-8.72t10.31-2.56q5.28,0,7.31-1.14a3.59,3.59,0,0,0,2-3.27,23.24,23.24,0,0,0-1.76-7.05l-19.39-55.17q-3-8.62-4.32-13.48a30.57,30.57,0,0,1-1.32-7.14,14,14,0,0,1,5.11-11.11,18.79,18.79,0,0,1,12.69-4.4q12.17,0,15.51,13.57l13.22,51.12H565Z"/><path class="cls-2" d="M626.13,819.13a58.53,58.53,0,0,1,14.63-21.07,61.72,61.72,0,0,1,21.07-12.6,73.27,73.27,0,0,1,24.59-4.14,70.46,70.46,0,0,1,20.53,2.9,58.13,58.13,0,0,1,16.84,8A40.16,40.16,0,0,1,735,803.79a25.07,25.07,0,0,1,4,13.31,16.22,16.22,0,0,1-5.37,12.51q-5.39,4.93-13.84,4.94c-3.76,0-6.61-.64-8.55-1.94s-4.26-4.17-7-8.64q-3.88-6.16-8.37-8.55A24.7,24.7,0,0,0,684.3,813q-9.87,0-16.39,9.26t-6.52,25.47q0,16.05,6.34,25.38t18.69,9.34a16.53,16.53,0,0,0,9.43-2.55q3.78-2.55,9.78-10.84,6-8.46,14.81-8.46a19,19,0,0,1,13.48,5,16.75,16.75,0,0,1,5.38,12.78,24.42,24.42,0,0,1-4.85,14.63,41.31,41.31,0,0,1-12.78,11.37,70.31,70.31,0,0,1-17.27,7.23,68.28,68.28,0,0,1-18,2.55,75.89,75.89,0,0,1-24.95-4.05,60.63,60.63,0,0,1-20.88-12.25A56.83,56.83,0,0,1,626.13,877q-5.28-12.69-5.29-29.26A73.53,73.53,0,0,1,626.13,819.13Z"/><path class="cls-2" d="M754.63,843.72a39.88,39.88,0,0,1,10.93-15.16,46,46,0,0,1,16.39-8.9,73.31,73.31,0,0,1,40.9,0,46,46,0,0,1,16.39,8.9,40,40,0,0,1,10.93,15.16,61,61,0,0,1,0,42.83,40,40,0,0,1-10.93,15.16,46.11,46.11,0,0,1-16.39,8.9,73.31,73.31,0,0,1-40.9,0,46.11,46.11,0,0,1-16.39-8.9,39.88,39.88,0,0,1-10.93-15.16q-3.89-9.16-3.88-21.5A54.31,54.31,0,0,1,754.63,843.72Zm59.14,3.52a13.56,13.56,0,0,0-22.74,0q-4,6.18-4,18.86,0,23.1,15.34,23.09t15.34-23.09Q817.74,853.41,813.77,847.24Z"/><path class="cls-2" d="M933.19,860.81q0-15.49-13.4-15.51-6.51,0-9.95,4.76t-3.44,13.22v32.26q0,8.82-4.94,13.4t-13.22,4.58q-8.28,0-13.22-4.58t-4.93-13.4V834q0-17.26,17.45-17.27,7.76,0,11.54,4.23t4.67,12.87h.36q9.33-17.1,30-17.1,18,0,26.71,9.78t8.72,25.82v43.19q0,8.82-4.93,13.4t-13.22,4.58q-8.29,0-13.22-4.58t-4.94-13.4Z"/><path class="cls-3" d="M62,808.1a2.73,2.73,0,0,1-2.7-2.36c0-.37-1.19-9.22,3.67-14.41,2.49-2.65,6-3.85,10.3-3.55a2.72,2.72,0,0,1,2.53,2.91,2.76,2.76,0,0,1-2.91,2.54c-2.67-.18-4.61.41-5.93,1.83-3.06,3.27-2.26,9.88-2.25,10a2.73,2.73,0,0,1-2.34,3.07A2.3,2.3,0,0,1,62,808.1Z"/><path class="cls-3" d="M297,843.8a2.74,2.74,0,0,1-2.7-2.36c-.05-.38-1.19-9.22,3.67-14.41,2.49-2.66,6-3.87,10.3-3.55a2.72,2.72,0,0,1,2.53,2.91,2.77,2.77,0,0,1-2.91,2.53c-2.67-.18-4.59.42-5.92,1.83-2.56,2.72-2.5,8.11-2.26,10a2.73,2.73,0,0,1-2.34,3.06A2.31,2.31,0,0,1,297,843.8Z"/><path class="cls-3" d="M878,843.8a2.74,2.74,0,0,1-2.7-2.36c0-.38-1.18-9.22,3.67-14.41,2.49-2.66,6-3.87,10.3-3.55a2.73,2.73,0,0,1-.38,5.44c-2.66-.18-4.6.42-5.92,1.83-2.56,2.72-2.5,8.11-2.26,10a2.73,2.73,0,0,1-2.34,3.06A2.31,2.31,0,0,1,878,843.8Z"/><path class="cls-3" d="M631.41,834.73a2.71,2.71,0,0,1-2.71-2.51c0-.49-.81-12,7.58-18.58a2.73,2.73,0,1,1,3.37,4.29c-6.07,4.77-5.52,13.79-5.51,13.88a2.73,2.73,0,0,1-2.52,2.92Z"/><path class="cls-3" d="M422.21,840.58a2.79,2.79,0,0,1-.85-.13,2.73,2.73,0,0,1-1.75-3.43,20.25,20.25,0,0,1,19.13-13.59,2.73,2.73,0,1,1,0,5.46c-10.54,0-13.81,9.42-13.94,9.82A2.73,2.73,0,0,1,422.21,840.58Z"/><path class="cls-3" d="M764.28,853.47l-.39,0a2.73,2.73,0,0,1-2.32-3.07c.07-.52,1.89-12.62,12.86-16.38a2.73,2.73,0,0,1,1.77,5.17c-7.76,2.65-9.17,11.59-9.22,12A2.74,2.74,0,0,1,764.28,853.47Z"/><path class="cls-3" d="M527.6,844.48a2.72,2.72,0,0,1-2.62-2c-.11-.36-2.47-9,1.61-14.78,2.09-3,5.35-4.65,9.69-5a2.73,2.73,0,1,1,.39,5.44c-2.65.19-4.49,1.06-5.61,2.64-2.15,3.06-1.33,8.38-.83,10.18a2.72,2.72,0,0,1-2.63,3.46Z"/><path class="cls-3" d="M179.08,885.67a2.73,2.73,0,0,1-2.73-2.62c0-.28-.18-6.75,4.26-11,2.78-2.69,6.62-3.87,11.43-3.55a2.73,2.73,0,0,1-.38,5.45c-3.18-.24-5.61.45-7.23,2-2.7,2.58-2.62,6.91-2.62,7a2.73,2.73,0,0,1-2.65,2.8Z"/><path class="cls-1" d="M723,508C690.78,626.62,588.65,667.1,541.59,643.08s-54.68-128.2,24.47-208.42C631,368.88,755,333.93,804.47,322.12c4.85-1.16,8.31,4.66,4.72,8C786.65,351,749.42,400.21,723,508Z"/><path class="cls-4" d="M572.1,654.53c-12.19,0-23.37-2.36-32.72-7.13-18.62-9.5-31.85-30.74-36.29-58.26-6.54-40.53,5.65-103.3,59.51-157.89,65.63-66.51,190.22-101.78,240.74-113.86a9.81,9.81,0,0,1,11,4.94,9.3,9.3,0,0,1-1.9,11.33c-20.16,18.66-58,66.28-84.79,175.45l0,.12c-17,62.8-55.86,111.68-106.5,134.11C604.39,650.77,587.45,654.53,572.1,654.53ZM805.35,327c-50.23,11.9-172.17,46.51-235.83,111-51.31,52-63,111.34-56.84,149.53C516.62,612,528,630.67,543.8,638.75c18.54,9.48,46,7.86,73.44-4.29,47.94-21.23,84.76-67.78,101-127.72C745.44,396.1,784.26,346.78,805.35,327Z"/><path class="cls-1" d="M301,508c32.21,118.67,134.34,159.15,181.4,135.13s54.68-128.2-24.47-208.42c-64.89-65.78-189-100.73-238.41-112.54-4.85-1.16-8.31,4.66-4.72,8C237.35,351,274.58,400.21,301,508Z"/><path class="cls-4" d="M451.9,654.53c-15.36,0-32.29-3.76-49.07-11.19-50.64-22.43-89.46-71.31-106.5-134.11l0-.12c-26.79-109.18-64.63-156.79-84.79-175.45a9.3,9.3,0,0,1-1.9-11.33,9.8,9.8,0,0,1,11-4.94c50.52,12.08,175.11,47.35,240.74,113.86,53.86,54.59,66.05,117.36,59.51,157.9-4.45,27.51-17.68,48.75-36.3,58.25C475.27,652.17,464.08,654.53,451.9,654.53ZM305.72,506.74c16.28,59.94,53.1,106.49,101,127.72,27.44,12.15,54.89,13.76,73.44,4.29C496,630.67,507.38,612,511.32,587.6c6.17-38.19-5.53-97.52-56.84-149.53-63.84-64.71-186.29-99.33-236-111.22C239.52,346.5,278.48,395.79,305.72,506.74Z"/><ellipse class="cls-5" cx="512" cy="442.67" rx="121.76" ry="252.8"/><path class="cls-4" d="M512,700.65c-34.62,0-66.85-27.33-90.76-77-23.33-48.43-36.18-112.71-36.18-181s12.85-132.57,36.18-181c23.91-49.64,56.14-77,90.76-77s66.86,27.34,90.76,77c23.33,48.43,36.18,112.72,36.18,181s-12.85,132.57-36.18,181C578.86,673.32,546.62,700.65,512,700.65ZM512,195c-64.28,0-116.58,111.09-116.58,247.63S447.72,690.29,512,690.29,628.57,579.21,628.57,442.67,576.28,195,512,195Z"/><ellipse class="cls-6" cx="512" cy="323.53" rx="158.92" ry="239.41"/><path class="cls-4" d="M512,569c-91,0-165-110.12-165-245.48S421,78.05,512,78.05,677,188.17,677,323.53,603,569,512,569Zm0-478.82c-84.28,0-152.85,104.68-152.85,233.34S427.72,556.87,512,556.87,664.85,452.2,664.85,323.53,596.28,90.19,512,90.19Z"/><ellipse class="cls-7" cx="512" cy="173.29" rx="24.56" ry="16.3"/><ellipse class="cls-7" cx="567.92" cy="173.29" rx="24.56" ry="16.3"/><ellipse class="cls-7" cx="456.08" cy="173.29" rx="24.56" ry="16.3"/><ellipse class="cls-7" cx="512" cy="330.93" rx="24.56" ry="16.3"/><ellipse class="cls-7" cx="567.92" cy="330.93" rx="24.56" ry="16.3"/><ellipse class="cls-7" cx="456.08" cy="330.93" rx="24.56" ry="16.3"/><ellipse class="cls-7" cx="484.04" cy="212.7" rx="24.56" ry="16.3"/><ellipse class="cls-7" cx="539.96" cy="212.7" rx="24.56" ry="16.3"/><ellipse class="cls-7" cx="595.89" cy="212.7" rx="24.56" ry="16.3"/><ellipse class="cls-7" cx="428.11" cy="212.7" rx="24.56" ry="16.3"/><ellipse class="cls-7" cx="484.04" cy="291.52" rx="24.56" ry="16.3"/><ellipse class="cls-7" cx="539.96" cy="291.52" rx="24.56" ry="16.3"/><ellipse class="cls-7" cx="595.89" cy="291.52" rx="24.56" ry="16.3"/><ellipse class="cls-7" cx="428.11" cy="291.52" rx="24.56" ry="16.3"/><ellipse class="cls-7" cx="459.98" cy="252.11" rx="22.84" ry="16.3"/><ellipse class="cls-7" cx="512" cy="252.11" rx="22.84" ry="16.3"/><ellipse class="cls-7" cx="564.02" cy="252.11" rx="22.84" ry="16.3"/><ellipse class="cls-7" cx="616.04" cy="252.11" rx="22.84" ry="16.3"/><ellipse class="cls-7" cx="407.96" cy="252.11" rx="22.84" ry="16.3"/><ellipse class="cls-7" cx="484.04" cy="133.88" rx="24.56" ry="16.3"/><ellipse class="cls-7" cx="539.96" cy="133.88" rx="24.56" ry="16.3"/><ellipse class="cls-7" cx="484.04" cy="370.34" rx="24.56" ry="16.3"/><ellipse class="cls-7" cx="539.96" cy="370.34" rx="24.56" ry="16.3"/><path class="cls-1" d="M712.08,477.68c7.14,124.91-87.57,193-146.13,182.62s-103.08-110-46.75-210.43C565.38,367.51,685.41,298.74,734,273.39c4.76-2.48,10.48,2.24,7.82,6.48C725.07,306.54,702.61,365.05,712.08,477.68Z"/><path class="cls-4" d="M578,666.5a74.57,74.57,0,0,1-12.89-1.09c-25.6-4.52-48.45-24.35-62.69-54.4-22.79-48.09-18.19-109.28,12.31-163.67C561.44,363.94,682,294.7,731.59,268.8A11.26,11.26,0,0,1,745,271.11a9.31,9.31,0,0,1,1.16,11.51c-14.92,23.78-38.54,80.7-29,194.63v.14c3.54,61.85-18,118.28-59.12,154.83C633.57,654,604,666.5,578,666.5ZM736.78,277.89a.87.87,0,0,0-.39.1c-48.83,25.47-167.27,93.45-212.67,174.42-28.86,51.47-33.34,109.09-12,154.16,12.6,26.58,33.21,44.76,55.12,48.63,25.65,4.51,58-7.25,84.39-30.73,38.72-34.42,59-87.78,55.67-146.43-9.71-115.67,14.39-174.82,30-200.14Z"/><path class="cls-1" d="M311.92,477.68c-7.14,124.91,87.57,193,146.13,182.62s103.08-110,46.75-210.43C458.62,367.51,338.59,298.74,290,273.39c-4.76-2.48-10.48,2.24-7.82,6.48C298.93,306.54,321.39,365.05,311.92,477.68Z"/><path class="cls-4" d="M446.05,666.5c-26,0-55.62-12.46-80.18-34.28-41.11-36.55-62.66-93-59.12-154.83v-.14c9.58-113.93-14-170.84-29-194.63A9.31,9.31,0,0,1,279,271.11a11.26,11.26,0,0,1,13.45-2.31c49.64,25.9,170.15,95.14,216.91,178.54,30.5,54.39,35.1,115.57,12.31,163.66-14.24,30.06-37.09,49.89-62.68,54.41A74.86,74.86,0,0,1,446.05,666.5ZM317.09,478c-3.34,58.65,17,112,55.67,146.43,26.42,23.48,58.77,35.25,84.39,30.73,21.91-3.87,42.52-22.05,55.12-48.63,21.35-45.07,16.87-102.7-12-154.16-45.4-81-163.84-149-212.66-174.42a.77.77,0,0,0-.55-.09C302.7,303.22,326.81,362.38,317.09,478Z"/><ellipse class="cls-3" cx="471.15" cy="212.7" rx="30.64" ry="53.73"/><path class="cls-4" d="M498.54,213.57c-.13,16.36-3.93,38.17-18.16,48.61-13.68,10-26.7-8.55-31.11-19.56-7-17.5-7.41-38.4-1.79-56.31,3.83-12.18,14.42-32.33,30-23.65,16.68,9.3,20.94,33.69,21.08,50.91,0,1.21,6.5.23,6.49-1.74-.15-17.78-4.94-44-23.3-52.35-15.36-7-30.31,5.24-36.86,18.41-9.89,19.85-10.26,46-2.08,66.47,5.91,14.77,18.56,27.95,35.57,21.85,20.85-7.48,26.51-35,26.67-54.38C505,210.65,498.56,211.59,498.54,213.57Z"/><ellipse class="cls-4" cx="478.24" cy="212.7" rx="23.54" ry="41.28"/><polygon class="cls-3" points="478.83 213.31 444.68 223.61 443.99 205.69 478.83 213.31"/><ellipse class="cls-3" cx="552.85" cy="212.7" rx="30.64" ry="53.73"/><path class="cls-4" d="M580.21,213c-.13,16.13-3.63,37.73-17.76,48-13.54,9.78-26.08-5.54-31-17.11-7.31-17.27-7.91-38-2.59-55.92,3.46-11.66,13.63-31.71,29-25.38,7.54,3.1,12.65,10.81,15.86,17.95,4.57,10.16,6.38,21.43,6.47,32.51,0,3.34,6.59,2.33,6.57-.52-.15-18.15-4.77-43.37-22.46-53-15.68-8.52-30.76,3.74-37.63,17.54-9.86,19.79-10.42,45.59-2.66,66.16,5.47,14.48,18.16,30.14,35.48,24.39,21.15-7,27.11-35.88,27.27-55.11C586.8,209.1,580.24,210.1,580.21,213Z"/><ellipse class="cls-4" cx="559.95" cy="212.7" rx="23.54" ry="41.28"/><polygon class="cls-3" points="560.9 213.76 526.75 224.06 526.06 206.14 560.9 213.76"/><path class="cls-8" d="M635.13,505.25c-.61-28.08,8.32-59.61,15.75-83.09a463.39,463.39,0,0,1,33.17-79.43,181.2,181.2,0,0,1,11.39-18.9,69.11,69.11,0,0,1,6.53-8.15c3.83-3.93,1.65,1.1.2,4.57-6.47,15.44-10.88,33.24-13.84,51.38-3.42,21-5,42.58-6.19,64.06-1.36,23.77-2.4,47.91-7,70.76-1.92,9.44-4.52,18.75-8.5,26.05s-9.51,12.38-15,11.86c-6.74-.64-12.31-10.22-14.56-21A100.23,100.23,0,0,1,635.13,505.25Z"/><path class="cls-8" d="M586.54,496.48c5.09-21.88,16.58-45.21,25.6-62.47a452.71,452.71,0,0,1,35.37-57.38A166.45,166.45,0,0,1,658,363.43a59.16,59.16,0,0,1,5.51-5.48c3.06-2.55.78,1.07-.77,3.58-6.89,11.14-13,24.4-18.3,38.1-6.14,15.86-11.26,32.41-16.17,48.93-5.44,18.28-10.75,36.9-18,54-3,7.08-6.36,14-10.17,19.13S592,530.1,588.85,529c-3.92-1.38-5.41-9.54-4.66-18.21A101.13,101.13,0,0,1,586.54,496.48Z"/><path class="cls-8" d="M553.45,476.41c6-14.33,16-29.24,23.7-40.24a364.09,364.09,0,0,1,28.67-36.24c2.68-2.95,5.36-5.78,8-8.19a43.36,43.36,0,0,1,4-3.33c2.15-1.52.31.76-.94,2.34a193.17,193.17,0,0,0-16,24.39c-5.8,10.23-11.11,21-16.29,31.75-5.74,11.91-11.45,24-18.07,35.06a78,78,0,0,1-8.61,12.18c-2.94,3.22-5.91,5.12-7.6,4.18-2.1-1.16-1.82-6.71-.17-12.47A84.42,84.42,0,0,1,553.45,476.41Z"/><path class="cls-8" d="M391.87,505.25c.61-28.08-8.32-59.61-15.74-83.09A465,465,0,0,0,343,342.73a181.24,181.24,0,0,0-11.4-18.9,68.1,68.1,0,0,0-6.53-8.15c-3.82-3.93-1.65,1.1-.2,4.57,6.47,15.44,10.88,33.24,13.84,51.38,3.42,21,5,42.58,6.19,64.06,1.37,23.77,2.4,47.91,7.05,70.76,1.92,9.44,4.53,18.75,8.5,26.05s9.51,12.38,15,11.86c6.74-.64,12.32-10.22,14.56-21A99.34,99.34,0,0,0,391.87,505.25Z"/><path class="cls-8" d="M440.47,496.48c-5.09-21.88-16.59-45.21-25.61-62.47a452.71,452.71,0,0,0-35.37-57.38A166.45,166.45,0,0,0,369,363.43a59.16,59.16,0,0,0-5.51-5.48c-3.06-2.55-.78,1.07.77,3.58,6.89,11.14,13,24.4,18.3,38.1,6.14,15.86,11.26,32.41,16.17,48.93,5.44,18.28,10.75,36.9,18,54,3,7.08,6.36,14,10.17,19.13S435,530.1,438.15,529c3.93-1.38,5.41-9.54,4.66-18.21A102.53,102.53,0,0,0,440.47,496.48Z"/><path class="cls-8" d="M473.55,476.41c-6-14.33-16-29.24-23.7-40.24a364.09,364.09,0,0,0-28.67-36.24c-2.68-2.95-5.36-5.78-8-8.19a43.36,43.36,0,0,0-4-3.33c-2.15-1.52-.31.76.95,2.34a193.14,193.14,0,0,1,16,24.39c5.8,10.23,11.11,21,16.29,31.75,5.74,11.91,11.45,24,18.07,35.06a78.66,78.66,0,0,0,8.61,12.18c3,3.22,5.91,5.12,7.6,4.18,2.1-1.16,1.82-6.71.17-12.47A84.42,84.42,0,0,0,473.55,476.41Z"/></svg>